<mxfile host="app.diagrams.net" modified="2021-08-17T16:11:38.940Z" agent="5.0 (Macintosh; Intel Mac OS X 10_10_5) AppleWebKit/537.36 (KHTML, like Gecko) Chrome/87.0.4280.88 Safari/537.36" etag="3YOlFLFYm1uUHwQD49ME" version="14.9.6" type="github">
  <diagram id="C5RBs43oDa-KdzZeNtuy" name="Page-1">
    <mxGraphModel dx="786" dy="438" grid="1" gridSize="10" guides="1" tooltips="1" connect="1" arrows="1" fold="1" page="1" pageScale="1" pageWidth="827" pageHeight="1169" math="0" shadow="0">
      <root>
        <mxCell id="WIyWlLk6GJQsqaUBKTNV-0" />
        <mxCell id="WIyWlLk6GJQsqaUBKTNV-1" parent="WIyWlLk6GJQsqaUBKTNV-0" />
        <mxCell id="x4Jkv8CrMv6QVgOoSjrv-7" value="" style="edgeStyle=orthogonalEdgeStyle;rounded=0;orthogonalLoop=1;jettySize=auto;html=1;" edge="1" parent="WIyWlLk6GJQsqaUBKTNV-1" source="WIyWlLk6GJQsqaUBKTNV-3" target="x4Jkv8CrMv6QVgOoSjrv-0">
          <mxGeometry relative="1" as="geometry" />
        </mxCell>
        <mxCell id="WIyWlLk6GJQsqaUBKTNV-3" value="НАЧАЛО" style="rounded=1;whiteSpace=wrap;html=1;fontSize=12;glass=0;strokeWidth=1;shadow=0;" parent="WIyWlLk6GJQsqaUBKTNV-1" vertex="1">
          <mxGeometry x="290" y="100" width="180" height="50" as="geometry" />
        </mxCell>
        <mxCell id="x4Jkv8CrMv6QVgOoSjrv-11" value="" style="edgeStyle=orthogonalEdgeStyle;rounded=0;orthogonalLoop=1;jettySize=auto;html=1;" edge="1" parent="WIyWlLk6GJQsqaUBKTNV-1" source="WIyWlLk6GJQsqaUBKTNV-6" target="x4Jkv8CrMv6QVgOoSjrv-10">
          <mxGeometry relative="1" as="geometry" />
        </mxCell>
        <mxCell id="WIyWlLk6GJQsqaUBKTNV-6" value="a = XYZ % 10" style="rhombus;whiteSpace=wrap;html=1;shadow=0;fontFamily=Helvetica;fontSize=12;align=center;strokeWidth=1;spacing=6;spacingTop=-4;" parent="WIyWlLk6GJQsqaUBKTNV-1" vertex="1">
          <mxGeometry x="280" y="280" width="200" height="90" as="geometry" />
        </mxCell>
        <mxCell id="x4Jkv8CrMv6QVgOoSjrv-9" value="" style="edgeStyle=orthogonalEdgeStyle;rounded=0;orthogonalLoop=1;jettySize=auto;html=1;" edge="1" parent="WIyWlLk6GJQsqaUBKTNV-1" source="x4Jkv8CrMv6QVgOoSjrv-0" target="WIyWlLk6GJQsqaUBKTNV-6">
          <mxGeometry relative="1" as="geometry" />
        </mxCell>
        <mxCell id="x4Jkv8CrMv6QVgOoSjrv-0" value="Трёхзначное число&lt;br&gt;XYZ" style="shape=parallelogram;perimeter=parallelogramPerimeter;whiteSpace=wrap;html=1;fixedSize=1;" vertex="1" parent="WIyWlLk6GJQsqaUBKTNV-1">
          <mxGeometry x="290" y="190" width="180" height="60" as="geometry" />
        </mxCell>
        <mxCell id="x4Jkv8CrMv6QVgOoSjrv-13" value="" style="edgeStyle=orthogonalEdgeStyle;rounded=0;orthogonalLoop=1;jettySize=auto;html=1;" edge="1" parent="WIyWlLk6GJQsqaUBKTNV-1" source="x4Jkv8CrMv6QVgOoSjrv-10" target="x4Jkv8CrMv6QVgOoSjrv-12">
          <mxGeometry relative="1" as="geometry" />
        </mxCell>
        <mxCell id="x4Jkv8CrMv6QVgOoSjrv-10" value="n = XYZ // 10" style="rhombus;whiteSpace=wrap;html=1;shadow=0;fontFamily=Helvetica;fontSize=12;align=center;strokeWidth=1;spacing=6;spacingTop=-4;" vertex="1" parent="WIyWlLk6GJQsqaUBKTNV-1">
          <mxGeometry x="280" y="400" width="200" height="90" as="geometry" />
        </mxCell>
        <mxCell id="x4Jkv8CrMv6QVgOoSjrv-15" value="" style="edgeStyle=orthogonalEdgeStyle;rounded=0;orthogonalLoop=1;jettySize=auto;html=1;" edge="1" parent="WIyWlLk6GJQsqaUBKTNV-1" source="x4Jkv8CrMv6QVgOoSjrv-12" target="x4Jkv8CrMv6QVgOoSjrv-14">
          <mxGeometry relative="1" as="geometry" />
        </mxCell>
        <mxCell id="x4Jkv8CrMv6QVgOoSjrv-12" value="b = XY % 10" style="rhombus;whiteSpace=wrap;html=1;shadow=0;fontFamily=Helvetica;fontSize=12;align=center;strokeWidth=1;spacing=6;spacingTop=-4;" vertex="1" parent="WIyWlLk6GJQsqaUBKTNV-1">
          <mxGeometry x="280" y="520" width="200" height="90" as="geometry" />
        </mxCell>
        <mxCell id="x4Jkv8CrMv6QVgOoSjrv-17" value="" style="edgeStyle=orthogonalEdgeStyle;rounded=0;orthogonalLoop=1;jettySize=auto;html=1;" edge="1" parent="WIyWlLk6GJQsqaUBKTNV-1" source="x4Jkv8CrMv6QVgOoSjrv-14" target="x4Jkv8CrMv6QVgOoSjrv-16">
          <mxGeometry relative="1" as="geometry" />
        </mxCell>
        <mxCell id="x4Jkv8CrMv6QVgOoSjrv-14" value="n = XY // 10" style="rhombus;whiteSpace=wrap;html=1;shadow=0;fontFamily=Helvetica;fontSize=12;align=center;strokeWidth=1;spacing=6;spacingTop=-4;" vertex="1" parent="WIyWlLk6GJQsqaUBKTNV-1">
          <mxGeometry x="280" y="640" width="200" height="90" as="geometry" />
        </mxCell>
        <mxCell id="x4Jkv8CrMv6QVgOoSjrv-19" value="" style="edgeStyle=orthogonalEdgeStyle;rounded=0;orthogonalLoop=1;jettySize=auto;html=1;" edge="1" parent="WIyWlLk6GJQsqaUBKTNV-1" source="x4Jkv8CrMv6QVgOoSjrv-16" target="x4Jkv8CrMv6QVgOoSjrv-18">
          <mxGeometry relative="1" as="geometry" />
        </mxCell>
        <mxCell id="x4Jkv8CrMv6QVgOoSjrv-16" value="Сумма цифр XYZ =&lt;br&gt;n + b + a" style="rhombus;whiteSpace=wrap;html=1;shadow=0;fontFamily=Helvetica;fontSize=12;align=center;strokeWidth=1;spacing=6;spacingTop=-4;" vertex="1" parent="WIyWlLk6GJQsqaUBKTNV-1">
          <mxGeometry x="280" y="760" width="200" height="90" as="geometry" />
        </mxCell>
        <mxCell id="x4Jkv8CrMv6QVgOoSjrv-21" value="" style="edgeStyle=orthogonalEdgeStyle;rounded=0;orthogonalLoop=1;jettySize=auto;html=1;" edge="1" parent="WIyWlLk6GJQsqaUBKTNV-1" source="x4Jkv8CrMv6QVgOoSjrv-18" target="x4Jkv8CrMv6QVgOoSjrv-20">
          <mxGeometry relative="1" as="geometry" />
        </mxCell>
        <mxCell id="x4Jkv8CrMv6QVgOoSjrv-18" value="Произведение цифр&lt;br&gt;XYZ = n * b * a" style="rhombus;whiteSpace=wrap;html=1;shadow=0;fontFamily=Helvetica;fontSize=12;align=center;strokeWidth=1;spacing=6;spacingTop=-4;" vertex="1" parent="WIyWlLk6GJQsqaUBKTNV-1">
          <mxGeometry x="280" y="880" width="200" height="90" as="geometry" />
        </mxCell>
        <mxCell id="x4Jkv8CrMv6QVgOoSjrv-20" value="КОНЕЦ" style="rounded=1;whiteSpace=wrap;html=1;fontSize=12;glass=0;strokeWidth=1;shadow=0;" vertex="1" parent="WIyWlLk6GJQsqaUBKTNV-1">
          <mxGeometry x="290" y="1000" width="180" height="50" as="geometry" />
        </mxCell>
      </root>
    </mxGraphModel>
  </diagram>
</mxfile>
